<svg id="Layer_1" data-name="Layer 1" xmlns="http://www.w3.org/2000/svg" viewBox="0 0 922.83 175.04"><defs><style>.cls-1{fill:#551297;}.cls-2{fill:#0e0e0e;}</style></defs><path class="cls-1" d="M393.72,643.81v-5.4q0-62.49,0-125c0-26.95,17.75-44.6,44.81-44.61H567.87c1.4,1.39.82,3,.82,4.4q.06,63.74,0,127.48c0,24.58-18,43-42.3,43.08C482.41,643.93,438.43,643.81,393.72,643.81Zm41-119.6c5.2,9.09,10.35,18.06,15.93,27.79,10.13-17.69,19.8-34.58,29.6-51.68C465,498.53,445.4,508.88,434.71,524.21Zm-2.46,4.95c-10.35,15.27-8.7,37.26-2.57,50.34A2.26,2.26,0,0,0,432,581c9.69,0,19.38,0,29.8,0Zm96.64-1.35c-8.93-14.94-21.3-23.49-37.41-27-4.45-1-6.86.14-8.89,4.31-3.12,6.4-7,12.42-10.48,18.66-.65,1.18-2.14,2.25-1.18,4Zm-17.73,33.26-29.54,51.62c19.59-1.08,34.17-9.28,45.15-24.35ZM500,532.65,529.48,584c8.6-16.52,9.44-32.65,2.91-49.24a3.1,3.1,0,0,0-3.4-2.16C519.67,532.69,510.35,532.65,500,532.65Zm-66.35,53.11c.41,2.62,1.89,4,3.12,5.49a57.7,57.7,0,0,0,28.43,19.37c10.72,3.24,10.69,3.34,16.14-6.16,1.65-2.89,3.4-5.73,4.93-8.68,1.7-3.26,4.22-6.14,5.13-10Z" transform="translate(-393.71 -468.81)"/><path class="cls-2" d="M1083,512.81h16.61V584.6h39c-6.72-15-7.64-30.73-3.61-46.61,3.77-14.83,12.91-24.67,28.7-26.7,14.47-1.86,27.32,1.34,35.94,14.19,7,10.4,8,22.39,7.6,34.5-.27,8-1.56,15.86-5.25,23.15-11.61,23-45.75,25.71-61,4.81a5,5,0,0,0-2.61-2.07v13.85H1083Zm106.22,44.51c-.33-7.49-.59-14.63-3.8-21.26-3.11-6.46-8.2-10-15.33-10-7.3,0-13,3.32-15.72,10.19a52.89,52.89,0,0,0,.14,39.83c2.79,7,8.43,10.56,16,10.53s13.33-4.47,16.12-12C1188.7,568.94,1188.87,562.94,1189.17,557.32Z" transform="translate(-393.71 -468.81)"/><path class="cls-2" d="M1240.74,573.56c2.15-19.21,10.58-36.58,15.26-55,1.28-5.05,3.61-6.86,8.54-6a32.63,32.63,0,0,0,5,0c5.15,20.42,14,39.72,16.91,60.9,2.92-20.37,8.61-40.13,12.55-60.58h17.54l-24.07,87.56h-11.82c-5.47-20-14.13-39.19-17.45-59.93-.82-.09-1.2.37-1.3,1.11-2.65,19.59-11.09,37.51-16.26,56.38-.5,1.82-1.44,2.79-3.52,2.62a46.6,46.6,0,0,0-7,0c-2.14.15-2.89-.94-3.39-2.77-7.65-28.19-15.35-56.38-23.14-84.95h18.79C1231.44,533.2,1238.24,552.84,1240.74,573.56Z" transform="translate(-393.71 -468.81)"/><path class="cls-2" d="M932,558.45c.19-8.3.58-16.57,3.49-24.52,5.72-15.58,17.73-23.53,35.14-23.12,16.32.38,28.39,9.28,33,24.69a72.08,72.08,0,0,1,.81,38.92c-4.54,18-17.47,27.69-36,27.4-18.1-.28-30.36-10.39-34.59-28.52A90.25,90.25,0,0,1,932,558.45Zm18.21-3c0,7.85.55,15.61,4.57,22.65A15.91,15.91,0,0,0,970,586.57c6.85-.25,12.34-3.45,14.87-9.92a53.26,53.26,0,0,0-.37-40.76c-2.8-6.83-8.54-10.11-15.89-9.84s-12.44,4.06-15.36,10.81C950.73,542.79,950.28,549.06,950.21,555.41Z" transform="translate(-393.71 -468.81)"/><path class="cls-2" d="M860.86,556.3a60,60,0,0,1-3.3,22.49c-5.27,14.82-17.43,23.07-33.75,23-16.87,0-28.86-8.08-33.92-23.37a70,70,0,0,1-.54-42.7c5.15-17.35,18.86-26.13,37.78-24.82,17.39,1.21,29.38,12.59,32.59,30.92A63.94,63.94,0,0,1,860.86,556.3Zm-18,.59c0-6.85-.53-13.64-3.3-20-3-6.84-8.16-10.87-15.82-10.86-7.35,0-13,3.47-15.66,10.27a52.67,52.67,0,0,0,.41,40.29c2.81,6.77,8.48,10.21,15.82,10,7.51-.23,12.78-4.08,15.65-11.11C842.42,569.49,842.82,563.22,842.87,556.89Z" transform="translate(-393.71 -468.81)"/><path class="cls-2" d="M756.64,512.83h16.93v86.91H757V564h-32.1v35.78h-17V512.87h16.74V548h32Z" transform="translate(-393.71 -468.81)"/><path class="cls-2" d="M653,570v29.76H636v-86.2a114.79,114.79,0,0,1,25.87-2.17,76.82,76.82,0,0,1,11.9,1.22c14.06,2.53,22.46,11.7,23,24.8.63,16.56-6.69,27.53-21.06,31.38C668.38,570.73,660.93,570.83,653,570Zm.07-15.38c8.71,2.61,19.33.25,23.18-5.07,3.33-4.61,3.44-13,.22-17.45-4.1-5.65-14.1-7.71-23.4-4.79Z" transform="translate(-393.71 -468.81)"/><path class="cls-2" d="M1070.61,527.76h-34.39v21.79H1068v15.21h-32v35H1019.1V513h51.51Z" transform="translate(-393.71 -468.81)"/><path class="cls-2" d="M862.37,527.94V513h68.09v14.69H905.4v72H888V527.94Z" transform="translate(-393.71 -468.81)"/></svg>